HIERARCHY
ROOT root
{
	OFFSET	0	13.1	24.9
	CHANNELS 6  Xposition Yposition Zposition Xrotation Yrotation Zrotation
	JOINT spine_1
	{
		OFFSET	0	9.99999	0
		CHANNELS 3  Xrotation Yrotation Zrotation
		JOINT spine_2
		{
			OFFSET	0	112	-10
			CHANNELS 3  Xrotation Yrotation Zrotation
			JOINT spine_3
			{
				OFFSET	0	206.5	19.3
				CHANNELS 3  Xrotation Yrotation Zrotation
				JOINT spine_4
				{
					OFFSET	0	110.4	14.6
					CHANNELS 3  Xrotation Yrotation Zrotation
					JOINT neck_1
					{
						OFFSET	0	71.8	-50.3
						CHANNELS 3  Xrotation Yrotation Zrotation
						JOINT neck_2
						{
							OFFSET	0	86.2	-25.8
							CHANNELS 3  Xrotation Yrotation Zrotation
							JOINT head_ee
							{
								OFFSET	0	179.8	-8.7
								CHANNELS 3  Xrotation Yrotation Zrotation
								End Site
								{
									OFFSET	1	0	0
								}
							}
						}
					}
					JOINT left_clavicle
					{
						OFFSET	-43.2	22.4	-70.8
						CHANNELS 3  Xrotation Yrotation Zrotation
						JOINT left_shoulder
						{
							OFFSET	-93.9	-5.79999	48.7
							CHANNELS 3  Xrotation Yrotation Zrotation
							JOINT left_elbow
							{
								OFFSET	-291.4	-30.8	15.2
								CHANNELS 3  Xrotation Yrotation Zrotation
								JOINT left_lowarm_twist
								{
									OFFSET	-110.7	-3.89999	13.6
									CHANNELS 3  Xrotation Yrotation Zrotation
									JOINT left_hand
									{
										OFFSET	-110.7	-3.89999	13.6
										CHANNELS 3  Xrotation Yrotation Zrotation
										JOINT left_ee
										{
											OFFSET	-80.8	-5.10001	12.1
											CHANNELS 3  Xrotation Yrotation Zrotation
											End Site
											{
												OFFSET	1	0	0
											}
										}
									}
								}
							}
						}
					}
					JOINT right_clavicle
					{
						OFFSET	43.2	22.4	-70.8
						CHANNELS 3  Xrotation Yrotation Zrotation
						JOINT right_shoulder
						{
							OFFSET	93.9	-5.79999	48.7
							CHANNELS 3  Xrotation Yrotation Zrotation
							JOINT right_elbow
							{
								OFFSET	291.4	-30.8	15.2
								CHANNELS 3  Xrotation Yrotation Zrotation
								JOINT right_lowarm_twist
								{
									OFFSET	110.7	-3.89999	13.6
									CHANNELS 3  Xrotation Yrotation Zrotation
									JOINT right_hand
									{
										OFFSET	110.7	-3.89999	13.6
										CHANNELS 3  Xrotation Yrotation Zrotation
										JOINT right_ee
										{
											OFFSET	80.8	-5.10001	12.1
											CHANNELS 3  Xrotation Yrotation Zrotation
											End Site
											{
												OFFSET	1	0	0
											}
										}
									}
								}
							}
						}
					}
				}
			}
		}
	}
	JOINT left_hip
	{
		OFFSET	-82.8	-127.5	0.300001
		CHANNELS 3  Xrotation Yrotation Zrotation
		JOINT left_knee
		{
			OFFSET	-28.2	-396.7	2.2
			CHANNELS 3  Xrotation Yrotation Zrotation
			JOINT left_ankle
			{
				OFFSET	-11.7	-411.3	35.4
				CHANNELS 3  Xrotation Yrotation Zrotation
				JOINT left_toes
				{
					OFFSET	0	-60	-88.6
					CHANNELS 3  Xrotation Yrotation Zrotation
					JOINT left_foot_ee
					{
						OFFSET	-22.5	-16.5	-42.2
						CHANNELS 3  Xrotation Yrotation Zrotation
						End Site
						{
							OFFSET	1	0	0
						}
					}
				}
			}
		}
	}
	JOINT right_hip
	{
		OFFSET	82.8	-127.5	0.300001
		CHANNELS 3  Xrotation Yrotation Zrotation
		JOINT right_knee
		{
			OFFSET	28.2	-396.7	2.2
			CHANNELS 3  Xrotation Yrotation Zrotation
			JOINT right_ankle
			{
				OFFSET	11.7	-411.3	35.4
				CHANNELS 3  Xrotation Yrotation Zrotation
				JOINT right_toes
				{
					OFFSET	0	-60	-88.6
					CHANNELS 3  Xrotation Yrotation Zrotation
					JOINT right_foot_ee
					{
						OFFSET	22.5	-16.5	-42.2
						CHANNELS 3  Xrotation Yrotation Zrotation
						End Site
						{
							OFFSET	1	0	0
						}
					}
				}
			}
		}
	}
}
MOTION
Frames: 10
Frame Time: 0.02
2946.93165293 699.049 -1890.92570706 -9.70449428149 14.9612282794 1.427617779 6.60985 -0.161044 0.901333 6.61028 -0.218069 0.88926 6.60639 -0.302725 0.864117 6.60538 -0.16246 0.901079 -20.679 16.4746 8.80643 -21.6608 27.4594 15.5367 -0.0 0.0 -0.0 -1.49971 1.53055 -2.6738 -11.226 -11.6891 66.8669 0.822171 -22.1599 0.161008 -7.04255 -0.300715 0.848031 -1.33313 7.3098 -5.62627 -0.0 0.0 -0.0 6.86841 9.52349 -13.1289 -29.8082 20.1466 -71.6926 0.311792 8.7803 -0.0239373 -30.4794 2.00015 -3.2965 0.16803 -5.84075 -3.54038 0.0 0.0 0.0 19.0654 -5.72709 2.03658 -18.4687 0.310719 2.80489 17.8959 22.1824 -2.55188 -5.04586 0.0 0.0 -0.0 0.0 -0.0 22.4304 29.752 -0.589263 -53.8808 1.57669 -7.81774 30.6192 -21.0223 4.0916 -4.32344 0.0 0.0 0.0 0.0 0.0 
2921.55736676 703.122 -1895.92646202 -11.1667876686 13.134375477 1.493853901 6.84672 0.0466815 0.857898 6.84713 -0.00800127 0.859129 6.84647 -0.0871265 0.854738 6.84545 0.0489517 0.857771 -20.9959 16.1784 8.68935 -21.9689 26.995 15.3792 -0.0 0.0 -0.0 -1.17875 2.75384 -1.88825 -9.08093 -11.7183 62.4604 0.887434 -23.7304 0.186453 -7.64806 -0.331405 0.919127 -1.20458 3.90884 -6.31824 -0.0 0.0 -0.0 6.18273 10.0316 -11.6623 -30.244 20.1868 -72.8224 0.360915 10.1368 -0.0320104 -30.9945 2.04824 -3.34179 0.187644 -8.69998 -4.82791 0.0 0.0 0.0 16.4317 -3.79483 2.86259 -12.3173 0.308061 1.86154 9.85765 19.1071 -1.42909 -3.86516 0.0 0.0 -0.0 0.0 -0.0 31.1155 26.708 -4.6787 -50.2805 1.24669 -7.37206 24.713 -18.9994 3.37469 -3.91214 0.0 0.0 0.0 0.0 0.0 
2917.00945318 703.122 -1890.69406148 -11.2218562477 14.2753893007 1.72627649384 6.84672 0.0466815 0.857898 6.84713 -0.00800127 0.859129 6.84647 -0.0871265 0.854738 6.84545 0.0489517 0.857771 -20.9959 16.1784 8.68935 -21.9689 26.995 15.3792 -0.0 0.0 -0.0 -1.17875 2.75384 -1.88825 -9.08093 -11.7183 62.4604 0.887434 -23.7304 0.186453 -7.64806 -0.331405 0.919127 -1.20458 3.90884 -6.31824 -0.0 0.0 -0.0 6.18273 10.0316 -11.6623 -30.244 20.1868 -72.8224 0.360915 10.1368 -0.0320104 -30.9945 2.04824 -3.34179 0.187644 -8.69998 -4.82791 0.0 0.0 0.0 16.4317 -3.79483 2.86259 -12.3173 0.308061 1.86154 9.85765 19.1071 -1.42909 -3.86516 0.0 0.0 -0.0 0.0 -0.0 31.1155 26.708 -4.6787 -50.2805 1.24669 -7.37206 24.713 -18.9994 3.37469 -3.91214 0.0 0.0 0.0 0.0 0.0 
2879.50754229 695.576 -1894.47023028 -12.4080367129 13.5333235834 3.21457720355 7.01203 0.0430461 0.920793 7.01251 -0.0156311 0.921666 7.0116 -0.0978463 0.916591 7.01043 0.0481339 0.920541 -18.9377 14.3098 2.314 -19.9085 26.3414 8.17354 -0.0 0.0 -0.0 -0.88936 4.83894 -1.05878 -7.09071 -11.6988 57.6404 1.10863 -28.7739 0.284386 -9.31087 -0.419539 1.11268 -1.35818 -0.3525 -9.26727 -0.0 0.0 -0.0 5.18738 6.06816 -9.78965 -33.5175 23.9245 -69.074 0.606106 16.7124 -0.0890292 -31.4014 2.08652 -3.37725 -0.597401 -13.2792 -1.70504 0.0 0.0 0.0 10.5454 5.18411 2.70345 3.34538 -0.152149 -0.490688 10.475 19.2856 -1.51649 -1.64887 0.0 0.0 -0.0 0.0 -0.0 36.9289 16.1614 -4.03311 -44.4011 0.770235 -6.60311 18.9284 -10.397 2.60098 -5.29378 0.0 0.0 0.0 0.0 0.0 
2785.96748646 682.616 -1949.62096806 -10.2607093629 17.8530287957 5.45391086122 5.74063 -0.0322612 0.884992 5.74106 -0.088508 0.881146 5.73926 -0.186095 0.865807 5.73822 -0.0470269 0.88433 -13.9075 10.3748 -7.929 -14.2002 24.6087 -4.20402 -0.0 0.0 -0.0 0.906077 9.51936 2.699 -1.00959 -13.3227 52.2055 2.24785 -48.068 1.00251 -17.4536 -0.930416 2.01992 -1.67463 -1.3605 -11.8799 -0.0 0.0 -0.0 5.35037 0.484518 -10.3312 -40.4676 26.904 -63.5464 0.689849 18.8669 -0.114619 -30.4096 1.99367 -3.29033 -1.02353 -7.9561 3.32133 0.0 0.0 0.0 2.38576 21.7485 5.32424 3.50002 -0.159873 -0.513152 32.0539 21.8664 -4.26695 8.5919 -0.0 -0.0 -0.0 0.0 -0.0 39.3163 11.0531 -5.49635 -43.7237 0.720499 -6.51153 18.6359 -9.20138 2.56169 -1.58843 0.0 0.0 0.0 0.0 0.0 
2786.75460501 682.616 -1950.71572994 -10.2515450571 17.6950317737 5.42388994329 5.74063 -0.0322612 0.884992 5.74106 -0.088508 0.881146 5.73926 -0.186095 0.865807 5.73822 -0.0470269 0.88433 -13.9075 10.3748 -7.929 -14.2002 24.6087 -4.20402 -0.0 0.0 -0.0 0.906077 9.51936 2.699 -1.00959 -13.3227 52.2055 2.24785 -48.068 1.00251 -17.4536 -0.930416 2.01992 -1.67463 -1.3605 -11.8799 -0.0 0.0 -0.0 5.35037 0.484518 -10.3312 -40.4676 26.904 -63.5464 0.689849 18.8669 -0.114619 -30.4096 1.99367 -3.29033 -1.02353 -7.9561 3.32133 0.0 0.0 0.0 2.38576 21.7485 5.32424 3.50002 -0.159873 -0.513152 32.0539 21.8664 -4.26695 8.5919 -0.0 -0.0 -0.0 0.0 -0.0 39.3163 11.0531 -5.49635 -43.7237 0.720499 -6.51153 18.6359 -9.20138 2.56169 -1.58843 0.0 0.0 0.0 0.0 0.0 
2765.81044641 676.73 -1954.54966125 -10.2169164744 19.8317665515 5.16274093531 5.83449 -0.0369645 1.05385 5.8351 -0.103945 1.04936 5.83255 -0.2185 1.03161 5.83107 -0.052843 1.05317 -13.097 9.88164 -8.2491 -13.2865 23.9333 -4.86475 -0.0 0.0 -0.0 1.16219 8.2763 3.02942 -0.770951 -13.6101 51.8922 2.27644 -48.4274 1.02383 -18.0079 -0.969825 2.07895 -1.63265 -1.44278 -11.63 -0.0 0.0 -0.0 5.34667 -0.238851 -10.3439 -40.3437 27.1825 -63.8105 0.609391 16.7978 -0.0899761 -29.9328 1.94957 -3.24798 -0.983537 -7.95714 3.06154 0.0 0.0 0.0 0.65906 23.3456 6.31178 2.9231 -0.131363 -0.42924 36.0025 21.7246 -4.68082 10.0489 -0.0 -0.0 -0.0 0.0 -0.0 44.4184 5.06957 -7.1341 -31.1834 0.00307679 -4.72693 15.1489 -8.24434 2.11231 -1.32238 0.0 0.0 0.0 0.0 0.0 
2768.10129458 676.73 -1957.82399047 -10.1880502175 19.3815007006 5.07671764769 5.83449 -0.0369645 1.05385 5.8351 -0.103945 1.04936 5.83255 -0.2185 1.03161 5.83107 -0.052843 1.05317 -13.097 9.88164 -8.2491 -13.2865 23.9333 -4.86475 -0.0 0.0 -0.0 1.16219 8.2763 3.02942 -0.770951 -13.6101 51.8922 2.27644 -48.4274 1.02383 -18.0079 -0.969825 2.07895 -1.63265 -1.44278 -11.63 -0.0 0.0 -0.0 5.34667 -0.238851 -10.3439 -40.3437 27.1825 -63.8105 0.609391 16.7978 -0.0899761 -29.9328 1.94957 -3.24798 -0.983537 -7.95714 3.06154 0.0 0.0 0.0 0.65906 23.3456 6.31178 2.9231 -0.131363 -0.42924 36.0025 21.7246 -4.68082 10.0489 -0.0 -0.0 -0.0 0.0 -0.0 44.4184 5.06957 -7.1341 -31.1834 0.00307679 -4.72693 15.1489 -8.24434 2.11231 -1.32238 0.0 0.0 0.0 0.0 0.0 
2768.56884962 676.73 -1958.48548588 -10.1822958499 19.2902234854 5.05933837336 5.83449 -0.0369645 1.05385 5.8351 -0.103945 1.04936 5.83255 -0.2185 1.03161 5.83107 -0.052843 1.05317 -13.097 9.88164 -8.2491 -13.2865 23.9333 -4.86475 -0.0 0.0 -0.0 1.16219 8.2763 3.02942 -0.770951 -13.6101 51.8922 2.27644 -48.4274 1.02383 -18.0079 -0.969825 2.07895 -1.63265 -1.44278 -11.63 -0.0 0.0 -0.0 5.34667 -0.238851 -10.3439 -40.3437 27.1825 -63.8105 0.609391 16.7978 -0.0899761 -29.9328 1.94957 -3.24798 -0.983537 -7.95714 3.06154 0.0 0.0 0.0 0.65906 23.3456 6.31178 2.9231 -0.131363 -0.42924 36.0025 21.7246 -4.68082 10.0489 -0.0 -0.0 -0.0 0.0 -0.0 44.4184 5.06957 -7.1341 -31.1834 0.00307679 -4.72693 15.1489 -8.24434 2.11231 -1.32238 0.0 0.0 0.0 0.0 0.0 
2763.29838232 685.357 -1957.33497056 -13.0979973648 18.798448757 7.65357513436 6.0665 0.361305 0.846768 6.06685 0.306692 0.868041 6.07106 0.213344 0.895565 6.07011 0.352099 0.850637 -11.1697 9.40622 -8.89723 -11.1747 23.6003 -6.08128 -0.0 0.0 -0.0 1.21707 8.06543 3.10696 -0.150308 -13.7195 52.2029 2.30953 -48.8374 1.04867 -20.9926 -1.19176 2.39011 -1.40654 -4.40731 -11.4145 -0.0 0.0 -0.0 5.72352 2.0509 -11.0254 -39.1628 28.0286 -66.5875 0.560723 15.5236 -0.0764295 -27.9524 1.77025 -3.06822 -0.948883 -6.83122 3.33357 0.0 0.0 0.0 5.71845 25.7192 3.6425 0.338157 -0.0140721 -0.0499846 34.7013 22.0395 -4.55401 9.9277 -0.0 -0.0 -0.0 0.0 -0.0 43.9969 2.51011 -10.1886 -14.6492 -0.320991 -2.21907 14.6528 -1.70236 2.05776 -1.50616 0.0 0.0 0.0 0.0 0.0 
